#!OML:ASF F:\VICON\USERDATA\INSTALL\rory3\rory3.ASF
:FULLY-SPECIFIED
:DEGREES
205
root -2.66688 17.8181 1.59276 2.07614 -34.1264 -2.86449
lowerback 15.0998 1.44834 4.79993
upperback 2.6596 2.79142 2.82024
thorax -5.54579 1.27561 -0.269885
lowerneck -14.6249 -5.16953 -12.8247
upperneck 36.858 -6.34644 5.65508
head 16.2966 -3.81196 3.54349
rclavicle -5.9039e-014 1.11319e-014
rhumerus -25.4967 -11.3797 -76.509
rradius 27.5719
rwrist 8.29888
rhand -15.262 9.38488
rfingers 7.12502
rthumb 10.912 -20.3116
lclavicle -5.9039e-014 1.11319e-014
lhumerus -32.6673 5.8849 81.635
lradius 29.8783
lwrist -4.07424
lhand -19.564 25.1392
lfingers 7.12502
lthumb 6.76072 55.0112
rfemur -9.10068 -4.63377 26.3885
rtibia 31.0686
rfoot -17.633 -7.30719
rtoes 0.904193
lfemur -23.2759 2.26796 -16.8287
ltibia 45.8208
lfoot -9.35414 0.651075
ltoes -6.05803
206
root -2.72644 17.8106 1.67403 2.23948 -33.7202 -2.75717
lowerback 14.9832 1.39514 4.83258
upperback 2.61058 2.72134 2.79621
thorax -5.53389 1.2412 -0.297517
lowerneck -14.529 -5.17078 -12.9058
upperneck 36.8729 -6.33909 5.66845
head 16.2854 -3.8194 3.56716
rclavicle 6.22196e-014 2.38542e-015
rhumerus -25.1182 -11.0095 -76.4972
rradius 27.8384
rwrist 8.16734
rhand -15.3867 9.4013
rfingers 7.12502
rthumb 10.7918 -20.3015
lclavicle 6.22196e-014 2.38542e-015
lhumerus -32.7458 5.78577 81.6843
lradius 30.2207
lwrist -4.15937
lhand -19.6649 25.0578
lfingers 7.12502
lthumb 6.66333 54.933
rfemur -9.01065 -4.84719 26.3362
rtibia 31.196
rfoot -18.0142 -7.56088
rtoes 0.517484
lfemur -23.651 2.10673 -17.0789
ltibia 43.6954
lfoot -9.87636 0.778227
ltoes -6.17348
207
root -2.78481 17.7979 1.75813 2.35582 -33.3833 -2.66431
lowerback 14.9093 1.35833 4.88902
upperback 2.59408 2.67655 2.76558
thorax -5.50844 1.21898 -0.351122
lowerneck -14.4815 -5.2213 -13.0318
upperneck 36.89 -6.39721 5.71201
head 16.3005 -3.8554 3.59904
rclavicle 9.78021e-014 -1.74931e-014
rhumerus -24.6658 -10.5922 -76.4997
rradius 28.0812
rwrist 7.91298
rhand -15.2966 9.50881
rfingers 7.12502
rthumb 10.8787 -20.1894
lclavicle 9.78021e-014 -1.74931e-014
lhumerus -32.7575 5.78203 81.695
lradius 30.4972
lwrist -4.40651
lhand -19.4491 24.8468
lfingers 7.12502
lthumb 6.87164 54.7153
rfemur -8.84269 -5.15797 26.2641
rtibia 31.3026
rfoot -18.5555 -7.61305
rtoes 1.28738
lfemur -23.854 1.9545 -17.3208
ltibia 41.4745
lfoot -9.95501 0.998726
ltoes -8.82853
208
root -2.84407 17.7871 1.84589 2.45758 -33.0928 -2.63822
lowerback 14.7892 1.32597 5.02259
upperback 2.6379 2.6408 2.71528
thorax -5.38858 1.20229 -0.468255
lowerneck -14.4597 -5.25819 -13.0819
upperneck 36.9084 -6.46466 5.77992
head 16.32 -3.88106 3.62667
rclavicle 6.2816e-014 1.27222e-014
rhumerus -24.1832 -10.1298 -76.5838
rradius 28.4244
rwrist 7.49337
rhand -15.1371 9.4159
rfingers 7.12502
rthumb 11.0325 -20.2742
lclavicle 6.2816e-014 1.27222e-014
lhumerus -32.638 5.60218 81.7448
lradius 30.6775
lwrist -4.40645
lhand -19.321 24.9903
lfingers 7.12502
lthumb 6.99528 54.8547
rfemur -8.57025 -5.3008 26.2547
rtibia 31.3453
rfoot -19.0387 -7.70991
rtoes 2.68114
lfemur -23.925 1.81171 -17.509
ltibia 39.2386
lfoot -9.94997 1.43177
ltoes -10.6593
209
root -2.90598 17.7871 1.93251 2.71396 -33.0947 -2.77011
lowerback 14.647 1.41293 5.15925
upperback 2.64728 2.76544 2.71152
thorax -5.28858 1.2636 -0.56738
lowerneck -14.4597 -5.2805 -13.1158
upperneck 36.9941 -6.51054 5.83239
head 16.3754 -3.89939 3.65043
rclavicle 1.05555e-013 -5.56597e-015
rhumerus -23.8165 -9.7043 -76.5999
rradius 28.796
rwrist 7.03188
rhand -15.2052 9.30004
rfingers 7.12502
rthumb 10.9668 -20.3935
lclavicle 1.05555e-013 -5.56597e-015
lhumerus -32.5199 5.47848 81.7844
lradius 30.7733
lwrist -4.43538
lhand -19.4924 24.804
lfingers 7.12502
lthumb 6.82983 54.6738
rfemur -8.33602 -5.203 26.3821
rtibia 31.2819
rfoot -19.3194 -7.71619
rtoes 3.7697
lfemur -24.0913 1.93149 -17.5638
ltibia 37.0676
lfoot -9.8334 2.0719
ltoes -13.3982
